# AST/ASF file generated using VICON BodyLanguage
# -----------------------------------------------
:version 1.10
:name VICON
:units
  mass 1.0
  length 0.45
  angle deg
:documentation
   .ast/.asf automatically generated from VICON data using
   VICON BodyBuilder and BodyLanguage model FoxedUp or BRILLIANT.MOD
:root
   order TX TY TZ RX RY RZ
   axis XYZ
   position 0 0 0  
   orientation 0 0 0 
:bonedata
  begin
     id 1 
     name lhipjoint
     direction 0.567149 -0.783011 0.255413 
     length 2.28399 
     axis 0 0 0  XYZ
  end
  begin
     id 2 
     name lfemur
     direction 0.34202 -0.939693 0  
     length 7.34031  
     axis 0 0 20  XYZ
    dof rx ry rz
    limits (-160.0 20.0)
           (-70.0 70.0)
           (-60.0 70.0)
  end
  begin
     id 3 
     name ltibia
     direction 0.34202 -0.939693 0   
     length 6.9833   
     axis 0 0 20   XYZ
    dof rx
    limits (-10.0 170.0)
  end
  begin
     id 4 
     name lfoot
     direction 0.136498 -0.375025 0.91691   
     length 2.33665   
     axis -90 7.62852e-016 20   XYZ
    dof rx rz
    limits (-45.0 90.0)
           (-70.0 20.0)
  end
  begin
     id 5 
     name ltoes
     direction 1.5367e-011 -4.21617e-011 1   
     length 1.15039   
     axis -90 7.62852e-016 20   XYZ
    dof rx
    limits (-90.0 20.0)
  end
  begin
     id 6 
     name rhipjoint
     direction -0.602854 -0.758518 0.247423   
     length 2.35775  
     axis 0 0 0  XYZ 
  end
  begin
     id 7 
     name rfemur
     direction -0.34202 -0.939693 0   
     length 7.43932   
     axis 0 0 -20   XYZ
    dof rx ry rz
    limits (-160.0 20.0)
           (-70.0 70.0)
           (-70.0 60.0)
  end
  begin
     id 8 
     name rtibia
     direction -0.34202 -0.939693 0   
     length 7.11893   
     axis 0 0 -20   XYZ
    dof rx
    limits (-10.0 170.0)
 end
 begin
     id 9 
     name rfoot
     direction -0.131771 -0.362037 0.922803   
     length 2.53019  
     axis -90 -7.62852e-016 -20   XYZ
    dof rx rz
    limits (-45.0 90.0)
           (-20.0 70.0)
  end
  begin
     id 10 
     name rtoes
     direction -1.53733e-011 -4.21932e-011 1   
     length 1.24596   
     axis -90 -7.62852e-016 -20   XYZ
    dof rx
    limits (-90.0 20.0)
  end
  begin
     id 11 
     name lowerback
     direction 0.0235427 0.999023 -0.0374125   
     length 2.21768   
     axis 0 0 0   XYZ
    dof rx ry rz
    limits (-20.0 45.0)
           (-30.0 30.0)
           (-30.0 30.0)
  end
  begin
     id 12 
     name upperback
     direction 0.0302156 0.996818 -0.073759   
     length 2.20352   
     axis 0 0 0   XYZ
    dof rx ry rz
    limits (-20.0 45.0)
           (-30.0 30.0)
           (-30.0 30.0)
  end
  begin
     id 13 
     name thorax
     direction 0.0187169 0.998235 -0.0563532   
     length 2.22103   
     axis 0 0 0   XYZ
    dof rx ry rz
    limits (-20.0 45.0)
           (-30.0 30.0)
           (-30.0 30.0)
  end
  begin
     id 14 
     name lowerneck
     direction -0.119528 0.987423 0.103481   
     length 1.72948   
     axis 0 0 0   XYZ
    dof rx ry rz
    limits (-20.0 45.0)
           (-30.0 30.0)
           (-30.0 30.0)
  end
  begin
     id 15 
     name upperneck
     direction 0.248049 0.963095 -0.104496   
     length 1.74979   
     axis 0 0 0   XYZ
    dof rx ry rz
    limits (-20.0 45.0)
           (-30.0 30.0)
           (-30.0 30.0)
  end
  begin
     id 16
     name head
     direction 0.0903589 0.994284 -0.056876  
     length 1.78268  
     axis 0 0 0   XYZ
    dof rx ry rz
    limits (-20.0 45.0)
           (-30.0 30.0)
           (-30.0 30.0)
  end
  begin
     id 17 
     name lclavicle
     direction 0.946008 0.242039 -0.215608  
     length 3.80783  
     axis 0 0 0   XYZ
    dof ry rz
    limits (-20.0 10.0)
           (0.0 20.0)
  end
  begin
     id 18 
     name lhumerus
     direction 1 -4.48991e-011 -2.25695e-027   
     length 4.83125   
     axis 180 -30 -90   XYZ
    dof rx ry rz
    limits (-60.0 90.0)
           (-90.0 90.0)
           (-90.0 90.0)
  end
  begin
     id 19
     name lradius
     direction 0.999991 0.00366712 -0.00211721   
     length 3.00391   
     axis 180 -30 -90   XYZ
    dof rx
    limits (-10.0 170.0)
  end
  begin
     id 20
     name lwrist
     direction 0.999991 0.00393016 -0.00141978   
     length 1.50195   
     axis -1.00488e-014 90 90   XYZ
    dof ry
    limits (-180.0 0.0)
 end
  begin
     id 21 
     name lhand
     direction 1 -4.49123e-011 2.72098e-026   
     length 1.2717   
     axis -1.73687e-014 90 90   XYZ
    dof rx rz
    limits (-90.0 90.0)
           (-45.0 45.0)
  end
  begin
     id 22 
     name lfingers
     direction 1 -4.48678e-011 5.4479e-026   
     length 1.02528   
     axis -3.47372e-014 90 90   XYZ
    dof rx
    limits (0.0 90.0)
  end
  begin
     id 23
     name lthumb
     direction 0.707107 -6.34851e-011 0.707107   
     length 1.4721   
     axis -90 45 -1.62303e-014   XYZ
    dof rx rz
    limits (-45.0 45.0)
           (-45.0 45.0)
  end
  begin
     id 24 
     name rclavicle
     direction -0.981723 0.189447 -0.0181673   
     length 3.74989  
     axis 0 0 0   XYZ 
    dof ry rz
    limits (-10.0 20.0)
           (-20.0 0.0)
  end
  begin
     id 25 
     name rhumerus
     direction -1 -4.48985e-011 2.38206e-027  
     length 4.61118   
     axis 180 30 90   XYZ
    dof rx ry rz
    limits (-90.0 60.0)
           (-90.0 90.0)
           (-90.0 90.0)
  end
  begin
     id 26 
     name rradius
     direction -1 -4.48977e-011 7.41019e-027   
     length 2.91491   
     axis 180 30 90   XYZ
    dof rx
    limits (-10.0 170.0)
  end
  begin
     id 27 
     name rwrist
     direction -1 -4.48549e-011 1.3624e-026   
     length 1.45745   
     axis -1.00488e-014 -90 -90   XYZ
    dof ry
    limits (-180.0 0.0)
  end
  begin
     id 28
     name rhand
     direction -1 -4.49107e-011 2.72109e-026   
     length 1.30769   
     axis -1.73687e-014 -90 -90   XYZ
    dof rx rz
    limits (-90.0 90.0)
           (-45.0 45.0)
  end
  begin
     id 29
     name rfingers
     direction -1 -4.48919e-011 5.44468e-026   
     length 1.05429   
     axis -3.47372e-014 -90 -90   XYZ
    dof rx
    limits (0.0 90.0)
  end
  begin
     id 30
     name rthumb
     direction -0.707107 -6.35315e-011 0.707107   
     length 1.51376   
     axis -90 -45 1.62303e-014   XYZ
    dof rx rz
    limits (-45.0 45.0)
           (-45.0 45.0)
  end
:hierarchy
  begin
    root lhipjoint rhipjoint lowerback
    lhipjoint lfemur
    lfemur ltibia
    ltibia lfoot
    lfoot ltoes
    rhipjoint rfemur
    rfemur rtibia
    rtibia rfoot
    rfoot rtoes
    lowerback upperback
    upperback thorax
    thorax lowerneck lclavicle rclavicle
    lowerneck upperneck
    upperneck head
    lclavicle lhumerus
    lhumerus lradius
    lradius lwrist
    lwrist lhand lthumb
    lhand lfingers
    rclavicle rhumerus
    rhumerus rradius
    rradius rwrist
    rwrist rhand rthumb
    rhand rfingers
  end

#!OML:ASF X:\für Bonn\!DataBase\2005_08_11_Bastian_Final\c3d\Bastian.ASF
:FULLY-SPECIFIED
:DEGREES
1
root -3.39063 17.1531 3.88264 171.104 20.4109 -172.622
lowerback 5.64215 -3.9112 9.39063
upperback 5.71849 -4.15071 5.16243
thorax 2.50029 -1.50056 0.310565
lowerneck -5.88093 1.27886 2.90139
upperneck -4.86288 1.69668 -3.99742
head -0.460282 0.910291 -1.70978
rclavicle -1.93815e-014 -9.06458e-014
rhumerus -42.1348 2.98248 -76.2736
rradius 42.7347
rwrist -279.663
rhand 4.25433 -11.905
rfingers 7.12502
rthumb 29.6585 -399.554
lclavicle -1.93815e-014 -9.06458e-014
lhumerus 328.053 -15.0042 -264.523
lradius 63.5718
lwrist -142.822
lhand -30.4429 14.3917
lfingers 7.12502
lthumb -3.74517 44.3385
rfemur -2.39634 -12.5723 32.1678
rtibia 38.5183
rfoot -24.9038 -13.696
rtoes -3.13439
lfemur 13.1691 14.2376 -6.72734
ltibia 50.6827
lfoot -8.59143 -6.58369
ltoes -40.0706
2
root -3.39103 17.1488 3.94458 171.399 19.659 -172.494
lowerback 5.25605 -4.08199 9.28858
upperback 5.6248 -4.44159 5.17249
thorax 2.60702 -1.6531 0.369371
lowerneck -6.07533 1.28991 3.02208
upperneck -4.90394 1.70719 -4.00474
head -0.439374 0.915204 -1.73214
rclavicle 9.6013e-014 -7.95139e-014
rhumerus -42.632 2.32354 -76.0584
rradius 43.2356
rwrist -279.082
rhand 4.26022 -12.3536
rfingers 7.12502
rthumb 29.6641 -400.001
lclavicle 9.6013e-014 -7.95139e-014
lhumerus 328.242 -15.6118 -264.352
lradius 63.7824
lwrist -143.108
lhand -30.4091 14.5315
lfingers 7.12502
lthumb -3.71257 44.4789
rfemur -3.12514 -12.8744 32.4428
rtibia 38.7709
rfoot -24.8776 -13.8753
rtoes -2.16603
lfemur 13.9942 13.8535 -7.17402
ltibia 48.7077
lfoot -9.25596 -7.17628
ltoes -38.5636
3
root -3.39535 17.1409 4.01103 171.702 19.0038 -172.364
lowerback 4.93951 -4.2337 9.20153
upperback 5.53087 -4.69318 5.20056
thorax 2.67869 -1.78578 0.43902
lowerneck -6.30383 1.30528 3.14738
upperneck -4.93823 1.72256 -4.04723
head -0.410076 0.922678 -1.76638
rclavicle -6.5102e-014 7.95139e-014
rhumerus -43.1381 1.78478 -75.8452
rradius 43.8185
rwrist -278.504
rhand 4.21466 -12.8611
rfingers 7.12502
rthumb 29.6206 -400.516
lclavicle -6.5102e-014 7.95139e-014
lhumerus 328.454 -16.2642 -264.19
lradius 64.0177
lwrist -143.262
lhand -30.3761 14.5951
lfingers 7.12502
lthumb -3.68065 44.543
rfemur -3.91389 -13.1423 32.7202
rtibia 39.0778
rfoot -24.8193 -14.0145
rtoes -1.15891
lfemur 14.7848 13.5692 -7.59718
ltibia 46.6396
lfoot -9.9589 -7.78318
ltoes -36.7485
4
root -3.39829 17.1296 4.07855 171.965 18.3554 -172.259
lowerback 4.66752 -4.38286 9.06273
upperback 5.45165 -4.93574 5.23526
thorax 2.7471 -1.9149 0.543905
lowerneck -6.52783 1.31385 3.25229
upperneck -4.98255 1.73041 -4.06043
head -0.385399 0.92691 -1.78782
rclavicle -5.86415e-015 -1.11319e-014
rhumerus -43.6287 1.25496 -75.6142
rradius 44.444
rwrist -277.85
rhand 4.05582 -13.3124
rfingers 7.12502
rthumb 29.469 -400.994
lclavicle -5.86415e-015 -1.11319e-014
lhumerus 328.673 -16.972 -264.035
lradius 64.2593
lwrist -143.347
lhand -30.3018 14.726
lfingers 7.12502
lthumb -3.60894 44.6752
rfemur -4.7007 -13.5124 32.9483
rtibia 39.4316
rfoot -24.7618 -14.0604
rtoes -0.333834
lfemur 15.5851 13.3401 -8.00269
ltibia 44.5023
lfoot -10.685 -8.25143
ltoes -34.7613
5
root -3.40059 17.1172 4.14734 172.227 17.7026 -172.154
lowerback 4.40644 -4.52961 8.90882
upperback 5.37823 -5.17315 5.27351
thorax 2.81895 -2.04149 0.659454
lowerneck -6.70635 1.30874 3.35583
upperneck -5.06851 1.72073 -4.07618
head -0.381984 0.923315 -1.81082
rclavicle -8.19987e-014 9.38264e-014
rhumerus -44.1549 0.800558 -75.4042
rradius 45.1751
rwrist -277.236
rhand 3.77527 -13.773
rfingers 7.12502
rthumb 29.2011 -401.502
lclavicle -8.19987e-014 9.38264e-014
lhumerus 328.876 -17.5482 -263.913
lradius 64.5639
lwrist -143.479
lhand -30.3609 14.8251
lfingers 7.12502
lthumb -3.66597 44.7733
rfemur -5.5128 -14.019 33.155
rtibia 39.8226
rfoot -24.5996 -14.0089
rtoes 0.675552
lfemur 16.3571 13.1174 -8.39364
ltibia 42.3301
lfoot -11.3879 -8.42028
ltoes -32.3796
6
root -3.40124 17.1029 4.21719 172.479 17.0574 -172.031
lowerback 4.17581 -4.67329 8.75346
upperback 5.31678 -5.40024 5.3204
thorax 2.88955 -2.16183 0.784809
lowerneck -6.78655 1.29139 3.41028
upperneck -5.25268 1.70112 -4.05344
head -0.426977 0.917677 -1.81414
rclavicle 1.85864e-014 2.22639e-014
rhumerus -44.7008 0.313653 -75.1802
rradius 46.0261
rwrist -276.525
rhand 3.37578 -14.1504
rfingers 7.12502
rthumb 28.8196 -401.945
lclavicle 1.85864e-014 2.22639e-014
lhumerus 329.088 -18.0676 -263.81
lradius 64.8551
lwrist -143.569
lhand -30.4281 14.9442
lfingers 7.12502
lthumb -3.73091 44.8913
rfemur -6.32738 -14.5563 33.3819
rtibia 40.2262
rfoot -24.4143 -13.9182
rtoes 1.96175
lfemur 17.1118 12.9104 -8.73131
ltibia 40.1739
lfoot -12.196 -8.21005
ltoes -30.0509
7
root -3.40033 17.0871 4.28834 172.688 16.4267 -171.912
lowerback 4.00254 -4.82457 8.54954
upperback 5.26911 -5.62874 5.38191
thorax 2.94995 -2.28376 0.954103
lowerneck -6.80293 1.26593 3.42157
upperneck -5.48136 1.67563 -3.99276
head -0.497557 0.910627 -1.79839
rclavicle 2.39536e-014 3.33958e-014
rhumerus -45.2569 -0.190072 -74.9351
rradius 46.9655
rwrist -275.736
rhand 2.84085 -14.4543
rfingers 7.12502
rthumb 28.3085 -402.335
lclavicle 2.39536e-014 3.33958e-014
lhumerus 329.276 -18.5793 -263.716
lradius 65.2116
lwrist -143.586
lhand -30.4467 15.0159
lfingers 7.12502
lthumb -3.74885 44.9627
rfemur -7.09989 -15.1163 33.604
rtibia 40.6183
rfoot -24.1593 -13.7745
rtoes 3.462
lfemur 17.8695 12.7048 -9.03054
ltibia 38.0914
lfoot -13.2692 -7.66635
ltoes -28.3419
8
root -3.39872 17.0715 4.36275 172.897 15.7899 -171.789
lowerback 3.88142 -4.97722 8.34559
upperback 5.21584 -5.85145 5.43353
thorax 2.97666 -2.40414 1.11612
lowerneck -6.7876 1.23148 3.46731
upperneck -5.74808 1.63744 -3.93984
head -0.585526 0.897368 -1.79215
rclavicle 6.19214e-014 -7.4743e-014
rhumerus -45.8488 -0.629247 -74.7417
rradius 48.0338
rwrist -275.04
rhand 2.20196 -14.7009
rfingers 7.12502
rthumb 27.6977 -402.681
lclavicle 6.19214e-014 -7.4743e-014
lhumerus 329.467 -19.0205 -263.665
lradius 65.5697
lwrist -143.595
lhand -30.5003 15.1473
lfingers 7.12502
lthumb -3.80061 45.0931
rfemur -7.87604 -15.6851 33.8502
rtibia 40.9811
rfoot -23.8997 -13.6552
rtoes 4.7447
lfemur 18.5221 12.5091 -9.27932
ltibia 36.1347
lfoot -14.4766 -7.00146
ltoes -27.2992
9
root -3.39626 17.0589 4.43935 173.079 15.1641 -171.69
lowerback 3.83606 -5.13698 8.09952
upperback 5.16385 -6.07415 5.48107
thorax 2.96802 -2.52706 1.30187
lowerneck -6.72758 1.19459 3.45844
upperneck -6.09553 1.60473 -3.81985
head -0.707135 0.889477 -1.75552
rclavicle -2.55438e-014 1.11319e-014
rhumerus -46.3897 -1.02014 -74.6
rradius 49.1248
rwrist -274.373
rhand 1.50646 -14.9373
rfingers 7.12502
rthumb 27.0325 -403.023
lclavicle -2.55438e-014 1.11319e-014
lhumerus 329.661 -19.4186 -263.64
lradius 65.9226
lwrist -143.51
lhand -30.5096 15.2672
lfingers 7.12502
lthumb -3.80961 45.2129
rfemur -8.6184 -16.1968 34.0819
rtibia 41.3086
rfoot -23.6734 -13.5287
rtoes 6.12006
lfemur 19.0481 12.2667 -9.54531
ltibia 34.3288
lfoot -15.6842 -6.16712
ltoes -26.7709
10
root -3.39355 17.0485 4.51961 173.241 14.5537 -171.589
lowerback 3.89125 -5.28256 7.85379
upperback 5.10201 -6.26408 5.51797
thorax 2.89479 -2.63557 1.48403
lowerneck -6.68729 1.13896 3.50783
upperneck -6.41277 1.54302 -3.72108
head -0.816588 0.865121 -1.73643
rclavicle 0 4.92986e-014
rhumerus -46.957 -1.36816 -74.5133
rradius 50.3138
rwrist -273.797
rhand 0.817716 -15.1357
rfingers 7.12502
rthumb 26.3734 -403.322
lclavicle 0 4.92986e-014
lhumerus 329.832 -19.8609 -263.643
lradius 66.3392
lwrist -143.447
lhand -30.4549 15.3883
lfingers 7.12502
lthumb -3.75678 45.335
rfemur -9.34715 -16.5916 34.3441
rtibia 41.6059
rfoot -23.4773 -13.4858
rtoes 7.35903
lfemur 19.4557 11.9439 -9.81187
ltibia 32.6784
lfoot -16.8163 -5.24602
ltoes -26.421
11
root -3.39067 17.0374 4.60213 173.382 13.9705 -171.492
lowerback 4.03743 -5.43339 7.57836
upperback 5.0422 -6.44938 5.55847
thorax 2.77857 -2.74321 1.69398
lowerneck -6.71189 1.08855 3.51601
upperneck -6.71663 1.49378 -3.56841
head -0.911328 0.84765 -1.69188
rclavicle 6.06293e-015 1.74931e-014
rhumerus -47.4629 -1.63012 -74.4997
rradius 51.5304
rwrist -273.278
rhand 0.201677 -15.4003
rfingers 7.12502
rthumb 25.7835 -403.673
lclavicle 6.06293e-015 1.74931e-014
lhumerus 330.027 -20.2287 -263.678
lradius 66.7176
lwrist -143.351
lhand -30.3696 15.6026
lfingers 7.12502
lthumb -3.67442 45.5506
rfemur -10.0509 -16.9064 34.6179
rtibia 41.8892
rfoot -23.3031 -13.5083
rtoes 8.41331
lfemur 19.7879 11.5532 -10.0813
ltibia 31.1681
lfoot -17.899 -4.29117
ltoes -26.3015
